HIERARCHY
ROOT Hips
{
	OFFSET 0.00000 0.00000 0.00000
	CHANNELS 6 Xposition Yposition Zposition Zrotation Yrotation Xrotation 
	JOINT LHipJoint
	{
		OFFSET 0 0 0
		CHANNELS 3 Zrotation Yrotation Xrotation
		JOINT LeftUpLeg
		{
			OFFSET 2.36090 -1.39315 1.24752
			CHANNELS 3 Zrotation Yrotation Xrotation
			JOINT LeftLeg
			{
				OFFSET 2.06810 -5.68207 0.00000
				CHANNELS 3 Zrotation Yrotation Xrotation
				JOINT LeftFoot
				{
					OFFSET 2.46631 -6.77613 0.00000
					CHANNELS 3 Zrotation Yrotation Xrotation
					JOINT LeftToeBase
					{
						OFFSET 0.26031 -0.71520 1.99545
						CHANNELS 3 Zrotation Yrotation Xrotation
						End Site
						{
							OFFSET 0.00000 -0.00000 1.05957
						}
					}
				}
			}
		}
	}
	JOINT RHipJoint
	{
		OFFSET 0 0 0
		CHANNELS 3 Zrotation Yrotation Xrotation
		JOINT RightUpLeg
		{
			OFFSET -2.25243 -1.39315 1.24752
			CHANNELS 3 Zrotation Yrotation Xrotation
			JOINT RightLeg
			{
				OFFSET -2.17343 -5.97145 0.00000
				CHANNELS 3 Zrotation Yrotation Xrotation
				JOINT RightFoot
				{
					OFFSET -2.52372 -6.93386 0.00000
					CHANNELS 3 Zrotation Yrotation Xrotation
					JOINT RightToeBase
					{
						OFFSET -0.22538 -0.61923 2.11447
						CHANNELS 3 Zrotation Yrotation Xrotation
						End Site
						{
							OFFSET -0.00000 -0.00000 1.10506
						}
					}
				}
			}
		}
	}
	JOINT LowerBack
	{
		OFFSET 0 0 0
		CHANNELS 3 Zrotation Yrotation Xrotation
		JOINT Spine
		{
			OFFSET 0.01594 2.13103 0.08007
			CHANNELS 3 Zrotation Yrotation Xrotation
			JOINT Spine1
			{
				OFFSET 0.01393 2.09723 0.18338
				CHANNELS 3 Zrotation Yrotation Xrotation
				JOINT Neck
				{
					OFFSET 0 0 0
					CHANNELS 3 Zrotation Yrotation Xrotation
					JOINT Neck1
					{
						OFFSET 0.05351 1.38915 0.32494
						CHANNELS 3 Zrotation Yrotation Xrotation
						JOINT Head
						{
							OFFSET 0.00711 1.45992 -0.21666
							CHANNELS 3 Zrotation Yrotation Xrotation
							End Site
							{
								OFFSET -0.00433 1.47702 -0.11056
							}
						}
					}
				}
				JOINT LeftShoulder
				{
					OFFSET 0 0 0
					CHANNELS 3 Zrotation Yrotation Xrotation
					JOINT LeftArm
					{
						OFFSET 2.87198 0.92249 0.11132
						CHANNELS 3 Zrotation Yrotation Xrotation
						JOINT LeftForeArm
						{
							OFFSET 5.52731 -0.00000 0.00000
							CHANNELS 3 Zrotation Yrotation Xrotation
							JOINT LeftHand
							{
								OFFSET 3.11059 -0.00000 0.00000
								CHANNELS 3 Zrotation Yrotation Xrotation
								JOINT LeftFingerBase
								{
									OFFSET 0 0 0
									CHANNELS 3 Zrotation Yrotation Xrotation
									JOINT LeftHandIndex1
									{
										OFFSET 0.41963 -0.00000 0.00000
										CHANNELS 3 Zrotation Yrotation Xrotation
										End Site
										{
											OFFSET 0.33831 -0.00000 0.00000
										}
									}
								}
								JOINT LThumb
								{
									OFFSET 0 0 0
									CHANNELS 3 Zrotation Yrotation Xrotation
									End Site
									{
										OFFSET 0.34348 -0.00000 0.34348
									}
								}
							}
						}
					}
				}
				JOINT RightShoulder
				{
					OFFSET 0 0 0
					CHANNELS 3 Zrotation Yrotation Xrotation
					JOINT RightArm
					{
						OFFSET -2.94710 0.68072 0.32187
						CHANNELS 3 Zrotation Yrotation Xrotation
						JOINT RightForeArm
						{
							OFFSET -5.25396 -0.00000 -0.00000
							CHANNELS 3 Zrotation Yrotation Xrotation
							JOINT RightHand
							{
								OFFSET -3.10567 -0.00000 0.00000
								CHANNELS 3 Zrotation Yrotation Xrotation
								JOINT RightFingerBase
								{
									OFFSET 0 0 0
									CHANNELS 3 Zrotation Yrotation Xrotation
									JOINT RightHandIndex1
									{
										OFFSET -0.49868 -0.00000 0.00000
										CHANNELS 3 Zrotation Yrotation Xrotation
										End Site
										{
											OFFSET -0.40204 -0.00000 0.00000
										}
									}
								}
								JOINT RThumb
								{
									OFFSET 0 0 0
									CHANNELS 3 Zrotation Yrotation Xrotation
									End Site
									{
										OFFSET -0.40818 -0.00000 0.40818
									}
								}
							}
						}
					}
				}
			}
		}
	}
}
MOTION
Frames: 11
Frame Time: .0083333
9.1640 14.4977 28.1785 -209.6590 -86.1537 227.9700 0.0000 0.0000 0.0000 0.3534 -8.3426 -7.1182 0.0000 -0.0000 -0.0000 -0.2804 11.4524 -11.2769 1.4364 -7.5774 -21.4376 0.0000 0.0000 0.0000 -11.4374 28.4279 -14.5954 -1.7097 -8.2332 23.4247 0.4359 -20.3080 -25.1602 -2.1413 9.1544 -26.2795 -3.9787 -1.3301 -15.6853 -0.3431 -1.4776 -5.8003 1.6201 -0.8448 2.7062 6.2973 5.5078 -23.1857 2.3703 4.4587 26.3134 0.6335 2.8556 12.7536 0.0000 -0.0000 0.0000 -86.3351 17.6283 14.2072 17.2190 -27.1456 -4.1868 -0.0000 0.0000 -28.9807 33.3833 4.4994 2.9593 -7.1250 0.0000 -0.0000 5.6056 35.3183 -1.3385 0.0000 -0.0000 0.0000 88.3459 -17.4069 -3.5786 -12.1476 20.0256 -2.1526 0.0000 -0.0000 -5.8486 -4.1531 -22.2835 1.5772 7.1250 -0.0000 -0.0000 24.5705 -50.6226 -3.5923
9.1608 14.4966 28.1770 -208.9150 -86.0166 227.1390 0.0000 0.0000 0.0000 0.2687 -8.1930 -6.9758 0.0000 -0.0000 -0.0000 -0.2745 11.4189 -11.3465 1.4038 -7.4947 -21.1894 0.0000 0.0000 0.0000 -11.4713 28.3593 -14.7185 -1.7309 -8.2814 23.5722 0.4207 -20.1387 -25.0205 -2.1570 9.1857 -26.3780 -4.1101 -1.3474 -15.6937 -0.3420 -1.4757 -5.7399 1.6947 -0.8433 2.7766 6.3312 5.5218 -23.1667 2.3629 4.4728 26.2369 0.6257 2.8638 12.7206 -0.0000 0.0000 0.0000 -86.1033 17.7060 14.7008 17.3054 -27.2586 -4.2262 -0.0000 0.0000 -28.8074 34.4835 3.9377 2.7005 -7.1250 0.0000 -0.0000 6.4940 34.6957 -1.6516 -0.0000 0.0000 0.0000 88.4584 -17.6574 -1.1575 -12.2294 20.1478 -2.1807 0.0000 -0.0000 -7.0454 -4.3714 -23.9619 1.7783 7.1250 -0.0000 -0.0000 25.3062 -52.1756 -4.7184
9.1579 14.4957 28.1754 -207.7030 -85.8986 225.8340 0.0000 0.0000 0.0000 0.2296 -8.0295 -6.8274 0.0000 -0.0000 -0.0000 -0.2701 11.3960 -11.4025 1.3837 -7.4431 -21.0349 0.0000 0.0000 0.0000 -11.4522 28.2876 -14.8168 -1.7462 -8.3161 23.6783 0.4084 -19.9672 -24.8529 -2.1757 9.2228 -26.4947 -4.2016 -1.3563 -15.7017 -0.3241 -1.4684 -5.6730 1.7653 -0.8394 2.8532 6.3592 5.5352 -23.1423 2.3421 4.4933 26.1589 0.6146 2.8724 12.6861 -0.0000 0.0000 0.0000 -85.7322 17.7989 15.5498 17.3750 -27.3495 -4.2582 -0.0000 0.0000 -29.1300 35.2409 3.3807 2.3857 -7.1250 0.0000 -0.0000 7.0848 34.0518 -1.9152 -0.0000 0.0000 0.0000 88.5197 -17.8345 0.8873 -12.3151 20.2754 -2.2103 0.0000 -0.0000 -8.5107 -4.9301 -25.9715 2.1633 7.1250 -0.0000 -0.0000 26.0142 -54.0780 -6.1219
9.1552 14.4950 28.1741 -205.8830 -85.8099 223.9110 0.0000 0.0000 0.0000 0.2530 -7.8520 -6.6672 0.0000 0.0000 0.0000 -0.2666 11.3787 -11.4483 1.3750 -7.4205 -20.9673 0.0000 0.0000 0.0000 -11.3590 28.2079 -14.8762 -1.7537 -8.3330 23.7301 0.3980 -19.7875 -24.6558 -2.1957 9.2624 -26.6197 -4.2323 -1.3586 -15.7077 -0.2820 -1.4612 -5.5972 1.8271 -0.8357 2.9378 6.3853 5.5521 -23.1120 2.3042 4.5260 26.0784 0.5993 2.8838 12.6500 0.0000 -0.0000 0.0000 -85.2859 17.8593 16.5544 17.4058 -27.3896 -4.2723 -0.0000 0.0000 -29.7490 35.5692 2.8975 2.0703 -7.1250 0.0000 -0.0000 7.3194 33.4748 -2.0826 0.0000 -0.0000 0.0000 88.5289 -17.9396 2.5216 -12.4124 20.4202 -2.2441 0.0000 -0.0000 -10.3411 -5.9323 -27.9362 2.7870 7.1250 -0.0000 -0.0000 26.3860 -56.0223 -7.5050
9.1526 14.4942 28.1736 -203.5980 -85.7454 221.5050 0.0000 0.0000 0.0000 0.3280 -7.6684 -6.4894 0.0000 0.0000 0.0000 -0.2640 11.3666 -11.4840 1.3747 -7.4198 -20.9653 0.0000 0.0000 0.0000 -11.1971 28.1041 -14.8900 -1.7528 -8.3309 23.7238 0.3886 -19.5921 -24.4254 -2.2158 9.3018 -26.7441 -4.2067 -1.3521 -15.7010 -0.2252 -1.4510 -5.5128 1.8732 -0.8305 3.0241 6.4114 5.5707 -23.0753 2.2561 4.5648 25.9949 0.5809 2.8966 12.6118 0.0000 0.0000 0.0000 -84.7625 17.9016 17.7423 17.4268 -27.4169 -4.2820 -0.0000 0.0000 -30.6101 35.4865 2.4758 1.7640 -7.1250 0.0000 -0.0000 7.2207 32.9590 -2.1449 0.0000 0.0000 0.0000 88.5036 -17.9768 3.7132 -12.5174 20.5760 -2.2809 0.0000 -0.0000 -12.4873 -7.3047 -29.5253 3.6147 7.1250 -0.0000 -0.0000 26.2200 -57.7184 -8.5521
9.1502 14.4933 28.1739 -200.8100 -85.7007 218.5840 0.0000 0.0000 0.0000 0.4566 -7.4779 -6.2991 0.0000 0.0000 0.0000 -0.2618 11.3566 -11.5163 1.3765 -7.4245 -20.9792 0.0000 0.0000 0.0000 -10.9705 27.9805 -14.8659 -1.7439 -8.3108 23.6623 0.3812 -19.3862 -24.1607 -2.2371 9.3434 -26.8754 -4.1228 -1.3407 -15.6816 -0.1488 -1.4441 -5.4267 1.9068 -0.8269 3.1051 6.4349 5.5960 -23.0158 2.1914 4.6218 25.9005 0.5590 2.9148 12.5655 -0.0000 -0.0000 0.0000 -84.2064 17.9235 19.0074 17.4374 -27.4307 -4.2869 -0.0000 0.0000 -31.5442 35.0117 2.1158 1.4814 -7.1250 0.0000 -0.0000 6.8100 32.5115 -2.0954 -0.0000 -0.0000 0.0000 88.4333 -17.9692 4.5295 -12.6284 20.7404 -2.3200 0.0000 -0.0000 -14.7664 -8.9107 -30.4929 4.5488 7.1250 -0.0000 -0.0000 25.3758 -58.9316 -9.0035
9.1478 14.4921 28.1746 -197.6700 -85.6664 215.2970 0.0000 0.0000 0.0000 0.6259 -7.2858 -6.0927 0.0000 -0.0000 -0.0000 -0.2593 11.3452 -11.5498 1.3752 -7.4210 -20.9687 0.0000 0.0000 0.0000 -10.6909 27.8433 -14.8028 -1.7290 -8.2772 23.5591 0.3755 -19.1760 -23.8725 -2.2621 9.3919 -27.0290 -3.9918 -1.3199 -15.6443 -0.0632 -1.4329 -5.3395 1.9246 -0.8209 3.1770 6.4449 5.6186 -22.9532 2.1279 4.6799 25.8098 0.5399 2.9323 12.5196 0.0000 0.0000 0.0000 -83.6172 17.9261 20.3475 17.4406 -27.4349 -4.2884 -0.0000 0.0000 -32.4724 34.2160 1.8551 1.2611 -7.1250 0.0000 -0.0000 6.1510 32.1830 -1.9394 0.0000 0.0000 0.0000 88.3383 -17.9335 4.9974 -12.7291 20.8890 -2.3558 0.0000 -0.0000 -16.8292 -10.4656 -30.8287 5.4076 7.1250 -0.0000 -0.0000 24.0611 -59.5852 -8.8817
9.1454 14.4906 28.1753 -194.3400 -85.6316 211.8080 0.0000 0.0000 0.0000 0.8207 -7.0951 -5.8738 0.0000 -0.0000 -0.0000 -0.2572 11.3364 -11.5802 1.3743 -7.4187 -20.9620 0.0000 0.0000 0.0000 -10.3771 27.6959 -14.7134 -1.7106 -8.2354 23.4313 0.3713 -18.9642 -23.5676 -2.2904 9.4464 -27.2021 -3.8306 -1.2919 -15.5890 0.0214 -1.4175 -5.2548 1.9253 -0.8127 3.2358 6.4634 5.6430 -22.8723 2.0587 4.7407 25.7118 0.5171 2.9510 12.4679 0.0000 -0.0000 0.0000 -82.9629 17.9524 21.8822 17.4809 -27.4874 -4.3070 -0.0000 0.0000 -33.5028 33.1929 1.7369 1.1360 -7.1250 0.0000 -0.0000 5.3210 32.0259 -1.6958 0.0000 -0.0000 0.0000 88.2259 -17.8836 5.2109 -12.8009 20.9948 -2.3815 0.0000 -0.0000 -18.3738 -11.6836 -30.7285 6.0317 7.1250 -0.0000 -0.0000 22.7197 -59.7745 -8.4573
9.1433 14.4886 28.1753 -191.0730 -85.5822 208.3660 0.0000 0.0000 0.0000 1.0174 -6.9055 -5.6401 0.0000 -0.0000 -0.0000 -0.2558 11.3326 -11.6056 1.3758 -7.4225 -20.9733 0.0000 0.0000 0.0000 -10.0530 27.5500 -14.6058 -1.6920 -8.1927 23.3010 0.3687 -18.7581 -23.2560 -2.3237 9.5101 -27.4045 -3.6613 -1.2541 -15.5163 0.0943 -1.3906 -5.1674 1.9115 -0.7984 3.2869 6.4771 5.6602 -22.8017 2.0002 4.7882 25.6214 0.4973 2.9650 12.4208 0.0000 -0.0000 0.0000 -82.2507 17.9733 23.5553 17.5484 -27.5751 -4.3382 -0.0000 0.0000 -34.6165 32.0014 1.7565 1.0974 -7.1250 0.0000 -0.0000 4.3637 32.0313 -1.3884 0.0000 -0.0000 0.0000 88.1119 -17.8214 5.2436 -12.8311 21.0392 -2.3923 0.0000 -0.0000 -19.1976 -12.5312 -30.3211 6.4024 7.1250 -0.0000 -0.0000 21.5152 -59.5955 -7.8899
9.1415 14.4863 28.1743 -188.0260 -85.5152 205.1350 0.0000 0.0000 0.0000 1.2052 -6.7184 -5.3981 0.0000 -0.0000 -0.0000 -0.2546 11.3314 -11.6296 1.3795 -7.4321 -21.0019 0.0000 0.0000 0.0000 -9.7356 27.4101 -14.4979 -1.6762 -8.1562 23.1897 0.3657 -18.5535 -22.9510 -2.3628 9.5840 -27.6398 -3.5044 -1.2134 -15.4329 0.1544 -1.3578 -5.0799 1.8926 -0.7811 3.3318 6.5018 5.6733 -22.7335 1.9570 4.8198 25.5403 0.4789 2.9750 12.3777 0.0000 -0.0000 0.0000 -81.5124 17.9684 25.2316 17.6277 -27.6778 -4.3749 -0.0000 0.0000 -35.7337 30.6379 1.9262 1.1405 -7.1250 0.0000 -0.0000 3.2709 32.2070 -1.0257 0.0000 -0.0000 0.0000 87.9903 -17.7479 5.1939 -12.8178 21.0196 -2.3875 0.0000 -0.0000 -19.3061 -13.0050 -29.7239 6.5328 7.1250 -0.0000 -0.0000 20.5684 -59.1498 -7.3029
9.1401 14.4836 28.1720 -185.3650 -85.4248 202.2890 0.0000 0.0000 0.0000 1.3701 -6.5311 -5.1549 0.0000 0.0000 0.0000 -0.2538 11.3328 -11.6521 1.3847 -7.4455 -21.0422 0.0000 0.0000 0.0000 -9.4460 27.2842 -14.4094 -1.6659 -8.1324 23.1171 0.3585 -18.3403 -22.6737 -2.4015 9.6566 -27.8716 -3.3791 -1.1732 -15.3474 0.1980 -1.3205 -4.9940 1.8749 -0.7616 3.3739 6.5424 5.6839 -22.6604 1.9339 4.8354 25.4652 0.4629 2.9821 12.3360 -0.0000 -0.0000 0.0000 -80.7185 17.9718 27.0120 17.7545 -27.8417 -4.4340 -0.0000 0.0000 -36.9666 29.1555 2.2709 1.2663 -7.1250 0.0000 -0.0000 2.0788 32.5750 -0.6329 -0.0000 -0.0000 0.0000 87.8562 -17.6638 5.1429 -12.7724 20.9528 -2.3713 0.0000 -0.0000 -18.8598 -13.1811 -29.0414 6.4861 7.1250 -0.0000 -0.0000 19.8917 -58.5517 -6.7627
